<?xml version="1.0" encoding="utf-8"?>
<!-- Generator: Adobe Illustrator 25.0.0, SVG Export Plug-In . SVG Version: 6.00 Build 0)  -->
<svg version="1.1" id="Layer_1" xmlns="http://www.w3.org/2000/svg" xmlns:xlink="http://www.w3.org/1999/xlink" x="0px" y="0px"
	 viewBox="0 0 2000 2000" style="enable-background:new 0 0 2000 2000;" xml:space="preserve">
<style type="text/css">
	.st0{fill:#FFFFFF;}
</style>
<g>
	<path class="st0" d="M488,993.9c202.2,19,395.6,175.8,453.3,390.9c27.3,101.7,30.1,196.8,33,282.8c0.4,10.5,9,18.9,19.5,19
		c8.5,0.1,17,0.1,25.5,0.1c11.4-0.1,20.1-10,19.3-21.4c-7.2-96-2.8-187.2,22.3-280.5c57.8-215.1,251.1-371.9,453.3-390.9
		c9.1-0.9,62.5-4.4,117.5-3.5c58.4,0.9,122.3,13,132.2,14.1c-28.9-13.4-59.1-24.6-90.9-33.1c-283.7-76.2-574.8,79.9-672,351.7
		c-97.2-271.8-388.3-427.9-672-351.7c-31.8,8.5-62.1,19.8-90.9,33.1c10-1.1,73.9-13.1,132.2-14.1C425.5,989.5,479,993,488,993.9z"/>
	<path class="st0" d="M1326.3,444.4c-140.4,64.1-280.5,140.6-300.8,305.3c-3.5,28,0,56.5,0,97.4c109-219.9,325.4-293.8,325.4-293.8
		c-70.7,29.3-325.4,293.8-325.4,293.8c95.9-35.2,184.9-67.8,273.9-100.5c188.1-86,262.7-242,275.8-437.8
		C1490.3,355.6,1410.9,405.8,1326.3,444.4z"/>
	<path class="st0" d="M738.6,538C846.3,587.2,953.8,646,969.5,772.3c2.7,21.5,0,43.3,0,74.8c-83.7-168.8-249.7-225.5-249.7-225.5
		c54.3,22.5,249.7,225.5,249.7,225.5c-73.6-27-141.9-52-210.2-77.1c-144.4-66-201.6-185.8-211.7-336
		C612.7,469.9,673.6,508.4,738.6,538z"/>
	<path class="st0" d="M1060.1,939.8c44.2,44.5,44.2,127.1,0.4,175.6c-34.2,37.8-85,35.4-120.8,0c-46.2-47.9-45.6-130.6,0.3-175.5
		C973.9,906.7,1024.4,906.2,1060.1,939.8z"/>
</g>
</svg>
