<?xml version="1.0" encoding="utf-8"?>
<!-- Generator: Adobe Illustrator 25.0.0, SVG Export Plug-In . SVG Version: 6.00 Build 0)  -->
<svg version="1.1" id="Layer_1" xmlns="http://www.w3.org/2000/svg" xmlns:xlink="http://www.w3.org/1999/xlink" x="0px" y="0px"
	 viewBox="0 0 2000 2000" style="enable-background:new 0 0 2000 2000;" xml:space="preserve">
<style type="text/css">
	.st0{fill:#FFFFFF;}
</style>
<g>
	<path class="st0" d="M454.3,1024.8l62,124c33.4,66.9,95.6,111.9,167.5,124.2v23.5c0,228.9,186.2,415.1,415.1,415.1
		s415.1-186.2,415.1-415.1V917.4c112-18.9,197.7-116.3,197.7-233.6c0-130.8-106.4-237.2-237.2-237.2S1237.3,553,1237.3,683.8
		c0,117.3,85.7,214.7,197.7,233.6v379.1c0,185.3-150.8,336-336,336c-185.3,0-336-150.7-336-336V1273c71.8-12.3,134-57.3,167.5-124.2
		l62-124c105.3-83.3,165.8-206.7,165.8-341V486.1c0-59.3-33.2-110.5-81.6-137.5c-8.5-34.4-39.5-60.1-76.5-60.1
		c-43.6,0-79.1,35.5-79.1,79.1s35.5,79.1,79.1,79.1c19.9,0,37.8-7.6,51.7-19.8c16.6,14.5,27.3,35.6,27.3,59.3v197.7
		c0,111.5-50.7,214.2-139.4,282.4c-1.2,0.7-2.3,1.5-3.4,2.3c-61.7,46.5-135.3,71.1-213,71.1s-151.3-24.6-213-71.1
		c-1.1-0.8-2.2-1.5-3.4-2.2C418.3,898,367.5,795.3,367.5,683.7V486.1c0-34.5,22.3-63.5,53.1-74.3c14.2,21,38.3,34.8,65.5,34.8
		c43.6,0,79.1-35.5,79.1-79.1s-35.5-79.1-79.1-79.1c-30.4,0-56.5,17.4-69.7,42.6c-72.8,14.1-127.9,78.2-127.9,155.1v197.7
		C288.4,818,349,941.5,454.3,1024.8z M1474.4,723.3c-21.8,0-39.5-17.7-39.5-39.5s17.7-39.5,39.5-39.5s39.5,17.7,39.5,39.5
		S1496.2,723.3,1474.4,723.3z M1316.3,683.7c0-87.2,70.9-158.1,158.1-158.1s158.1,70.9,158.1,158.1c0,73.5-50.6,134.8-118.6,152.5
		V795c45.9-16.4,79.1-59.8,79.1-111.3c0-65.4-53.2-118.6-118.6-118.6s-118.6,53.2-118.6,118.6c0,51.5,33.1,94.9,79.1,111.3v41.2
		C1366.8,818.6,1316.3,757.2,1316.3,683.7z M859.6,1113.4c-26,51.9-78.2,84.2-136.3,84.2S613,1165.3,587,1113.4l-10-20
		c1.6,0.6,3.2,0.9,4.8,1.5c7.3,2.5,14.7,4.7,22.2,6.8c3.7,1.1,7.4,2.2,11.2,3.2c10.8,2.8,21.8,5.1,32.8,7c0.3,0.1,0.7,0.2,1,0.2
		c24.3,4.2,49.1,6.5,74.3,6.5s50-2.3,74.3-6.4c0.5-0.1,1-0.2,1.5-0.3c10.9-1.9,21.7-4.2,32.3-6.9c3.9-1,7.7-2.2,11.6-3.3
		c7.3-2.1,14.5-4.2,21.7-6.7c1.6-0.6,3.3-0.9,5-1.5L859.6,1113.4z"/>
</g>
</svg>
