<?xml version="1.0" encoding="utf-8"?>
<!-- Generator: Adobe Illustrator 25.0.0, SVG Export Plug-In . SVG Version: 6.00 Build 0)  -->
<svg version="1.1" id="Layer_1" xmlns="http://www.w3.org/2000/svg" xmlns:xlink="http://www.w3.org/1999/xlink" x="0px" y="0px"
	 viewBox="0 0 2000 2000" style="enable-background:new 0 0 2000 2000;" xml:space="preserve">
<style type="text/css">
	.st0{fill:#FFFFFF;}
</style>
<g>
	<g>
		<g>
			<path class="st0" d="M1867.6,0.1c22.4,48.7,47.8,90.2,61.5,136.5c57.8,194.4,14,374.7-142.2,533.4
				c-162,164.7-327.2,326.6-489.5,491.2c-30.1,30.5-58.1,45-100.5,43.5c-118.8-4-224.1,42-314,129.9
				c-51.7,50.5-101.5,103.2-152.6,154.4c-25.8,25.8-61.1,57.7-61.1,57.7L498,1375.4C498.1,1375.3,1768.5,80.4,1867.6,0.1z"/>
			<path class="st0" d="M110.4,1936c75.1,75.1,186.1,85.6,248.1,23.7l448.9-448.9l-21.8-21.8l-24.7,25
				c-29.7,29.7-94.6,90.6-94.6,90.6l-13.1,12.3l-227.7-227.7l129-131.3l-19-19L86.6,1687.7C24.8,1749.7,35.5,1860.9,110.4,1936
				L110.4,1936z"/>
		</g>
	</g>
</g>
</svg>
