<?xml version="1.0" encoding="utf-8"?>
<!-- Generator: Adobe Illustrator 25.0.0, SVG Export Plug-In . SVG Version: 6.00 Build 0)  -->
<svg version="1.1" id="Layer_1" xmlns="http://www.w3.org/2000/svg" xmlns:xlink="http://www.w3.org/1999/xlink" x="0px" y="0px"
	 viewBox="0 0 2000 2000" style="enable-background:new 0 0 2000 2000;" xml:space="preserve">
<style type="text/css">
	.st0{fill:#FFFFFF;}
</style>
<g>
	<g>
		<g>
			<path class="st0" d="M1607.8,299.5c15.7,34.1,33.5,63.2,43.1,95.6c40.5,136.2,9.8,262.5-99.6,373.7
				c-113.5,115.4-229.2,228.8-342.9,344.1c-21.1,21.4-40.7,31.5-70.4,30.5c-83.2-2.8-157,29.4-220,91
				c-36.2,35.4-71.1,72.3-106.9,108.2c-18.1,18.1-42.8,40.4-42.8,40.4l-120-120C648.4,1262.9,1538.4,355.8,1607.8,299.5z"/>
			<path class="st0" d="M376.8,1655.7c52.6,52.6,130.4,60,173.8,16.6l314.5-314.5l-15.3-15.3l-17.3,17.5
				c-20.8,20.8-66.3,63.5-66.3,63.5l-9.2,8.6l-159.5-159.5l90.4-92l-13.3-13.3l-314.5,314.5C316.8,1525.2,324.3,1603.1,376.8,1655.7
				L376.8,1655.7z"/>
		</g>
	</g>
</g>
</svg>
