<?xml version="1.0" encoding="utf-8"?>
<!-- Generator: Adobe Illustrator 25.0.0, SVG Export Plug-In . SVG Version: 6.00 Build 0)  -->
<svg version="1.1" id="Layer_1" xmlns="http://www.w3.org/2000/svg" xmlns:xlink="http://www.w3.org/1999/xlink" x="0px" y="0px"
	 viewBox="0 0 2000 2000" style="enable-background:new 0 0 2000 2000;" xml:space="preserve">
<style type="text/css">
	.st0{fill:#FFFFFF;}
</style>
<g>
	<g>
		<path class="st0" d="M1552.8,1367.6c-58.2,0.1-116.5,0-174.7,0c0,0,0,0,0-0.1c-59.8,0-119.5-0.2-179.3,0.1
			c-17.4,0.1-26.8,10.3-26.6,26.3c0.2,15.9,10.1,25.8,27.3,25.8c117.5,0.2,235,0.1,352.4,0.1c8.5,0,16.1-1.8,21.7-8.6
			c7.1-8.5,8.8-18,4.5-28.3C1573.5,1371.9,1564.6,1367.6,1552.8,1367.6z"/>
	</g>
	<g>
		<path class="st0" d="M959.6,1326.8h816.6c42.2,0,76.6-34.3,76.6-76.5V694.5c0-42.2-34.3-76.6-76.6-76.6H959.6
			c-42.2,0-76.6,34.3-76.6,76.6v268.5l-3.9,0.3c-23.7,1.7-30.8,7.7-38.1,32.2c-5.1,17.1-10.2,34.1-15.6,52.3l-12.7,42.6l-5-19.9
			c-0.5-2-0.8-3.1-1-4.2l-12.6-61.5c-9.9-48.3-19.7-96.6-29.5-144.9c-4.9-24.4-9.8-48.7-14.6-73.1c-4.4-22.2-8.8-44.4-13.3-66.6
			c-3.7-18.1-16.4-30.9-30.9-31.2c-0.2,0-0.4,0-0.6,0c-15.4,0-27.3,10.9-31.9,29.2c-3.3,13.2-6.2,26.5-9.1,39.8l-18.3,82.5
			c-15.8,71.2-31.7,142.3-47.6,213.4c-5.5,24.4-11,48.8-16.6,73.2l-9.6,42l-5.4-8.4c-3.9-6-5.1-11.9-5.8-16.3
			c-2.3-15-4.6-29.9-6.9-44.9c-3.1-20-6.2-39.9-9.3-59.9c-16.9-105.8-33.9-211.5-51.1-317.3c-7.7-47.6-14.3-87-20.8-124
			c-2.7-15.7-15-20.9-24.8-22.5c-12.8-2.3-23.4,2.9-30.4,14.7c-3.6,6-6.1,13-8.4,19.9l-0.6,1.7C369.4,723,329,837.4,289.9,950.1
			c-4.2,12-11.4,14.6-20.8,14.6c-0.3,0-0.6,0-0.9,0c-22.6-0.4-45-0.2-67.5-0.2l-16.1,0.1c-6.3,0-11.3,0-16,2.2
			c-13.1,6.2-20.9,19.8-18.6,32.3c3,16.2,15.5,26.3,32.8,26.5c39,0.5,77.7,0.3,113.9,0.1c25.8-0.1,33.7-6,42.6-31.5
			c24-68.7,48-137.4,72.2-206.1c2.8-8,5.8-15.9,9.1-24.6l9.7-26.1l3.5,12.4c0.6,2.2,1.2,4.1,1.7,5.7c1,3.3,1.7,5.7,2.1,8.1
			c8.2,50.9,16.4,101.8,24.4,152.7l20.7,130.1c15.7,99.4,31.5,198.7,47.3,298.1c1.5,9.2,2.8,17.6,7.2,24.4
			c7.3,11.5,18.4,15.8,32.6,13c12.7-2.5,20.7-11.5,24.3-27.5l76.3-337c6.8-30,13.6-60,20.8-91.3l10.6-46.4l5,12.1
			c0.9,2.1,1.6,3.7,2.2,5c1,2.3,1.8,4,2.2,5.9c21.6,107.5,43.1,215,64.5,322.4c3.5,17.7,14,28.4,28.8,29.4
			c16.7,1.2,27.6-7.7,32.9-26c9.4-32.2,18.7-64.4,28-96.6l17.5-60.6v178.9C883,1292.5,917.3,1326.8,959.6,1326.8z M1833.9,993.8
			l-13.6,0c-14.2,0-28.2,0.1-41.7,0c-28.4-0.2-29.9-1.2-40.7-25.3c-3.3-7.3-6.3-14.7-9.3-22.1c-2.5-6.2-5-12.3-7.7-18.4
			c-2.9-6.6-6-13.1-9.1-19.7l-3.2-6.8l-1.3,0.1l-28.4,100.7l-73.2-57.6l-94.8,50.7l-54.5-34.6l-48.3,39.3l-65.8-118.3l-106.7,119.7
			l-53.5-65.9c-5,4.4-9.9,8.6-14.8,12.7c-13.6,11.6-26.4,22.6-38.5,34.1c-11.6,11-23.9,15.3-40.6,15.3c-41-0.6-82.9-0.5-123.2-0.3
			l-32.5,0.1c-6.1,0-12.1,0.4-18.1,0.7l-8.7,0.5l-0.1-29.1l9.4,0.5c7.4,0.4,14.5,0.6,21.8,0.6c12.6,0,25.2-0.1,37.8-0.3
			c29.8-0.4,60.6-0.7,90.9,0.9c28.7,1.7,48.9-5.9,66.7-24.8c10-10.8,21.7-20.1,33.9-30c5.5-4.4,11-8.9,16.6-13.6l3.2-2.7l51,61.6
			L1345.1,840l3.1,4c16.7,21.5,28.3,44.4,39.6,66.6c9.2,18,17.8,35,28.9,51.4l39.1-32.7l13.6,9.2c9.1,6.1,17.8,11.9,26.3,17.8
			c17.5,12.2,17.5,12.2,35.5,2.1c16.9-9.4,33.7-18.9,51.3-28.9l26.1-14.8l54.2,44c6.3-15.6,10-31.6,13.6-47.2
			c5.1-22.1,9.9-43,21.5-62.6l1.1-1.9l11.6-0.7l2,2.6l55,120h66.3V993.8z M901.8,829.4l7.6,1.8c1.8,0.4,3.1,0.8,3.8,0.8l18.7,0.1
			c31.3,0.2,62.3,0.3,93.7,0.2c0.2,0,0.5,0,0.7,0c7.3,0,14.8,0.4,22.3,0.8c18.4,1,37.4,2,52.5-3.4c14.6-5.3,26.4-16.8,38.8-29
			c5.5-5.4,11.1-10.9,17-15.8c5.3-4.5,10.7-8.9,16.7-13.9l12.9-10.6l49.1,60.5c17.5-17.1,33.3-35.3,48.4-52.9
			c18.7-21.7,38.1-44.2,61.1-64.7l3.9-3.5l66.9,121.1l40.2-31.1l55.8,37.6l97.5-52.3l53.6,44.7l3-10.5c2.6-9.2,4.9-17.4,7.2-25.6
			c1.3-4.7,2.5-9.4,3.7-14.1c2.2-8.5,4.4-17,7-25.4c0.9-2.8,1.4-5.9,1.9-9.2c1.7-10.2,3.6-21.8,18-31.4l3.7-2.4l2.2,3.8
			c13.1,22.2,22.8,45.2,32.2,67.6c7.8,18.4,15.7,37.4,25.5,55.4h66.2V854h-81.3l-1.2-1.8c-9.7-14.3-16-29.4-22.1-44.1
			c-6.2-14.8-12.6-30-22.5-44.8l-27.9,96.7l-73.8-55.9l-93.6,51.8l-53.4-35.4l-50.3,39.2l-64.6-117.3c-20.2,18.9-37.5,39-54.3,58.6
			c-15.8,18.4-32.1,37.4-50.6,55l-3.2,3.1l-2.9-3.4c-17.8-21.1-33.4-39.6-50.1-59.4c-4.6,4-9.1,7.8-13.5,11.6
			c-12.6,10.8-24.5,20.9-35.7,31.6c-11.4,10.8-24.4,15.7-40.9,15.2c-32.6-0.7-65.8-0.6-98.1-0.5c-12.4,0-24.9,0-37.4,0h-54.6V829.4z
			 M901.8,1114.2h4.2c15.8,0,31.5,0,47-0.1c41.7-0.1,81.2-0.3,121.4,0.4c0.6,0,1.1,0,1.7,0c17.1,0,29.1-4.5,41-15.3
			c14.4-13,29.6-24.9,45.7-37.5c6.8-5.4,13.8-10.8,20.9-16.5l3.2-2.5l49.7,58.3c17.1-16.5,32.2-34.1,46.9-51.3
			c18.8-21.9,38.3-44.6,62-65.2l3.9-3.4l67,121l40.7-30.8l55.9,36.2l94.5-51.3l56.3,41.2c0.6-1.7,1.1-3.3,1.6-4.8
			c2-6.1,3.7-11.3,5.1-16.5c2.3-8.6,4.5-17.2,6.8-25.9c3.9-15.3,7.9-30.5,12.2-45.6c1.2-4.3,3.7-7.9,7.1-12.9c1.7-2.6,3.7-5.5,6-9.2
			l4.1-6.7l60.6,132.9h66.6v27.5h-82.6l-43-93c-6,13.7-9.3,27.3-12.5,40.6c-4.4,18.1-8.6,35.3-18.8,51.9l-2.5,4l-68.5-54.1
			l-95.9,51.4l-51.3-35.4l-51.2,38.7l-65.4-118.3l-106.4,119l-53-62.4c-5.4,4.3-10.6,8.4-15.8,12.5c-14.2,11.2-27.6,21.7-40.2,32.9
			c-9.7,8.7-20.3,11.9-36,12.2c-44.1-0.4-88.1-0.3-132.2-0.2l-26.4,0c-6.3,0-12.8,0.3-20,0.6l-10.4,0.4V1114.2z M901.8,1168
			l8.2,27.3c0.2,0.7,0.3,1.4,0.5,2c6.4,0.2,12.8,0.5,19.1,0.8c41,1.9,79.8,3.7,114.3-20c7.3-5,16-8.6,23.6-11.4
			c4.4-1.7,9.1-2.4,13.2-3.1c1.6-0.3,3.1-0.5,4.6-0.8l2.5-0.5l20.9,26.6l36.5-40.3l27,38.3c7.9-5.4,13.3-12.8,18.9-20.6
			c7.7-10.7,15.7-21.7,30.9-28.7l4.2-1.9l21.4,63c11.9-5.5,24.4-5.9,36.4-6.3c16.5-0.6,30.7-1,41.7-13.6l2.9-3.3l22.5,21.8l41-23.6
			l8.9,4.4c5.3,2.6,10.6,5.1,15.6,8c22.4,12.8,44.3,18.3,68.1,16.7c27.2-1.6,54.5-1.2,86.9-0.1c22.8,0.9,37.2-3.7,49.3-14.9
			c5.4-5,12.2-8.7,19.4-12.6c3.3-1.8,6.7-3.6,10.1-5.6l3.4-2.1l22.1,33.1c36.3,3.6,118.8,2.8,153.3-0.4l4.6-0.4v24h-173.7
			l-16.1-20.3c-1,0.5-2,1-2.9,1.5c-3.5,1.8-6.5,3.4-8.7,5.4c-16.9,14.4-36.4,19.6-60.8,16.7c-25-3-50.1-3-71.4-2.6
			c-36.6,0.8-74.8,1.4-106.5-22.1l-49.1,26.9l-18.4-18.4l-29.8,17l-2.2-2.7c-9.8-11.4-20.8-8.4-33.6-4.9c-10.3,2.9-21,5.8-31.5,0.9
			l-1.6-0.7l-14.4-38.6c-2.5,3-4.7,5.9-7,8.7c-7.6,9.4-14.2,17.6-21.2,25.5c-4.9,5.5-9.7,7.9-14.7,7.7c-5-0.3-9.5-3.4-13.8-9.5
			c-3.6-5.1-6.8-10.5-10.5-16.5c-1-1.7-2.1-3.4-3.2-5.2l-34,36.6l-33.7-37.6c-1.4,0.5-2.7,1-4,1.5c-3.8,1.4-7.1,2.7-9.7,4.3
			c-36.5,23.9-77.5,24.6-109.2,22.6c-10.7-0.7-21.5-0.2-33.1,0.4c-4.3,0.2-8.6,0.4-13,0.5l-4.3,0.1V1168z"/>
	</g>
</g>
</svg>
